<svg xmlns="http://www.w3.org/2000/svg" viewBox="0 0 315 316">
  <path d="M35.01 35.83c29.49 0 58.98-.01 88.47 0 .01 9.17.01 18.33 0 27.49-13.83.02-27.67 0-41.5.01 19.34 19.36 38.69 38.71 58.05 58.05-6.48 6.5-12.97 12.99-19.48 19.46-19.34-19.36-38.69-38.7-58.04-58.04-.01 13.83.02 27.67-.01 41.5H35.01c-.01-29.49-.01-58.98 0-88.47Zm167.51 0c29.49-.01 58.98 0 88.47 0 .01 29.49.01 58.98.01 88.47-9.17 0-18.33-.01-27.49 0-.05-13.83-.01-27.66-.03-41.49-19.37 19.33-38.68 38.7-58.05 58.03-6.48-6.5-12.98-12.96-19.44-19.47 19.36-19.33 38.7-38.68 58.03-58.04-13.83-.01-27.67.01-41.5-.01-.01-9.16-.01-18.32 0-27.49Zm-140 205.37c19.36-19.34 38.68-38.72 58.06-58.04 6.47 6.47 12.9 12.97 19.43 19.37-19.24 19.48-38.71 38.73-58.03 58.14 13.83.01 27.67-.01 41.5.01.01 9.16.01 18.32 0 27.49-29.49.01-58.98 0-88.47 0-.02-29.49-.01-58.98 0-88.47 9.16-.01 18.32.01 27.48 0 .05 13.83.01 27.66.03 41.5Zm123.47-38.58c6.46-6.51 12.97-12.96 19.43-19.46 19.38 19.33 38.7 38.7 58.06 58.03.02-13.83-.02-27.66.03-41.49 9.16.01 18.32 0 27.48 0 .01 29.49.01 58.98 0 88.47-29.49 0-58.98.01-88.47 0-.01-9.17-.01-18.33 0-27.49 13.83-.02 27.67 0 41.5-.01-19.33-19.36-38.68-38.71-58.03-58.05Z" />
</svg>
