<svg xmlns="http://www.w3.org/2000/svg" viewBox="0 0 337 328">
  <path d="M42.42 44.64c1.79-.66 3.73-.62 5.61-.66 32.02.06 64.05-.03 96.07.05 5.37-.23 10.23 4.57 10.02 9.95.06 32.7.05 65.4.01 98.1.25 5.44-4.65 10.31-10.08 10.05-32.69.04-65.38.05-98.06-.01-5.39.22-10.2-4.65-9.96-10.03-.07-32.37-.01-64.75-.03-97.12-.36-4.37 2.23-8.84 6.42-10.33Zm137.97-.04c1.79-.63 3.72-.58 5.59-.62 32.05.07 64.1-.04 96.14.06 5.27-.16 10 4.56 9.84 9.83.07 32.74.05 65.48.01 98.22.18 4.6-3.31 9.01-7.85 9.82-2.37.37-4.77.24-7.15.26-30.99-.05-61.98.03-92.96-.04-5.47.29-10.41-4.61-10.14-10.08-.06-32.34 0-64.69-.03-97.03-.37-4.43 2.27-8.97 6.55-10.42ZM42.35 182.51c1.79-.68 3.74-.65 5.62-.68 32.01.05 64.03-.03 96.04.04 5.48-.29 10.41 4.65 10.12 10.14.04 32.68.06 65.37-.01 98.05.18 5.37-4.67 10.16-10.03 9.91-32.37.07-64.74.01-97.1.03-6.6.77-12.05-5.59-11.01-11.99.06-32.04-.03-64.09.05-96.14-.11-4.05 2.53-7.96 6.32-9.36Zm137.97-.04c1.79-.65 3.74-.61 5.62-.64 32.03.06 64.07-.04 96.1.05 5.37-.2 10.16 4.65 9.93 10.01.04 32.74.06 65.48-.01 98.22.17 5.3-4.61 10.05-9.91 9.86-32.7.06-65.41.04-98.12 0-5.38.26-10.25-4.55-10.05-9.94-.07-32.67-.05-65.35-.01-98.03-.15-4.13 2.54-8.16 6.45-9.53Z" />
</svg>
