<svg xmlns="http://www.w3.org/2000/svg" viewBox="0 0 299 309">
  <path d="M59.48 32.71c3.12-.56 6.29-.72 9.46-.72 12.72.02 25.44 0 38.15.01 3.73-.33 7.44 2.34 8.1 6.06.99 4.31-2.65 8.91-7.07 8.9-14.06.15-28.12-.08-42.17.1-16.17.47-30.4 14.68-30.89 30.85-.18 14.07.05 28.15-.11 42.22.01 4.43-4.59 8.05-8.89 7.06-3.74-.67-6.41-4.42-6.06-8.16.06-14.02-.12-28.05.09-42.08.82-21.53 18.13-40.87 39.39-44.24Zm125.94-.18c1.77-.7 3.73-.49 5.6-.55 13.34.11 26.69-.12 40.03.11 19.82.81 37.97 15.48 43.14 34.59 2.41 7.88 1.71 16.2 1.81 24.31-.04 9.71.07 19.41-.04 29.12-.02 3.72-3.24 6.98-6.93 7.21-4.07.38-7.99-3.13-7.99-7.23-.15-14.04.08-28.09-.1-42.13-.48-15.83-14.09-29.86-29.89-30.84-14.72-.38-29.47.15-44.18-.26-7.23-.85-8.36-12.03-1.45-14.33Zm-41.06 79.95c12.95-1.06 26.23 3.52 35.77 12.35 9.54 8.64 15.33 21.28 15.51 34.16.33 12.36-4.46 24.72-12.97 33.67-9.09 9.75-22.41 15.37-35.74 14.98-14.51-.21-28.64-7.62-37.22-19.3-8.95-11.87-11.73-28.05-7.3-42.23 5.38-18.39 22.81-32.41 41.95-33.63m.03 15.05c-3.66.42-7.26 1.42-10.57 3.05-13.69 6.34-21.51 22.88-17.48 37.47 3.78 16.22 21.32 27.54 37.66 24.05 16.86-2.75 29.36-20.34 26.27-37.18-2.27-16.74-19.1-29.68-35.88-27.39ZM24.38 193.36c4.54-2.35 10.58 1.37 10.57 6.46.17 14.09-.08 28.19.11 42.28.49 16.16 14.73 30.34 30.88 30.84 14.07.18 28.15-.05 42.22.1 4.43.01 8.05 4.65 7.01 8.95-.68 3.72-4.41 6.35-8.14 6.01-13.67-.03-27.35.06-41.02-.05-18.05-.39-35.11-12.16-42.11-28.75-2.92-6.64-4.1-13.94-3.91-21.17.02-12.36 0-24.73.01-37.09-.23-3.12 1.48-6.31 4.38-7.58Zm240.91.04c4.57-2.45 10.72 1.33 10.67 6.49.11 13.05 0 26.1.05 39.15.1 6.64-1.06 13.32-3.62 19.46-6.83 16.95-24.09 29.07-42.4 29.45-13.7.11-27.4.02-41.1.05-3.69.31-7.37-2.32-8.06-5.99-1.07-4.35 2.63-9.01 7.1-8.97 14.06-.14 28.12.08 42.18-.11 15.83-.5 29.82-14.15 30.77-29.95.31-14.36-.02-28.73.16-43.09.03-2.74 1.78-5.33 4.25-6.49Z" />
</svg>
