<svg xmlns="http://www.w3.org/2000/svg" viewBox="0 0 335 321">
  <path d="M55.29 35.82c19.21 19.16 38.37 38.37 57.56 57.54.02-13.71 0-27.43.02-41.14h27.26c.02 29.24.01 58.47.01 87.71-29.25 0-58.5.02-87.74 0 .02-9.09-.01-18.18.02-27.26h41.13c-19.17-19.2-38.37-38.38-57.54-57.58 6.42-6.43 12.85-12.84 19.28-19.27Zm159.85 57.55c19.2-19.18 38.36-38.38 57.57-57.55 6.43 6.43 12.86 12.85 19.29 19.27-19.18 19.2-38.38 38.38-57.55 57.58h41.13c.03 9.08 0 18.17.02 27.26-29.25.02-58.49 0-87.74 0 0-29.24 0-58.47.01-87.71h27.26c.02 13.71 0 27.43.01 41.15ZM52.4 184.07c29.25-.02 58.49 0 87.74 0 0 29.24 0 58.47-.01 87.71h-27.27c-.01-13.71.01-27.43 0-41.14-19.2 19.17-38.36 38.37-57.57 57.54-6.43-6.43-12.86-12.84-19.28-19.28 19.18-19.19 38.37-38.37 57.55-57.57H52.42c-.03-9.09 0-18.17-.02-27.26Zm135.46 0c29.25 0 58.5-.02 87.74.01-.03 9.08.01 18.17-.02 27.25h-41.13c19.17 19.2 38.37 38.38 57.55 57.58-6.43 6.42-12.86 12.84-19.29 19.27-19.2-19.17-38.37-38.37-57.56-57.55-.02 13.72 0 27.43-.02 41.15h-27.26c-.01-29.24-.01-58.48-.01-87.71Z" />
</svg>
