<svg xmlns="http://www.w3.org/2000/svg" viewBox="0 0 333 345">
  <path d="M95.66 42.8c8.18-.01 16.37-.01 24.55 0 .01 27.74.01 55.48 0 83.23-27.73.01-55.47 0-83.2 0 .01-8.19-.04-16.38.02-24.57 19.54.04 39.07-.01 58.61.02.04-19.56 0-39.12.02-58.68Zm114.13 0c8.18-.01 16.37-.01 24.55 0 .02 19.56-.02 39.12.02 58.68 19.55-.02 39.09-.01 58.64 0v24.55c-27.74 0-55.48.01-83.21 0-.01-27.75-.01-55.49 0-83.23Zm-86 97.44c27.47-.01 54.95 0 82.42 0 .02 18.5.01 37.01 0 55.52-27.47.01-54.94 0-82.42.01-.02-18.51-.01-37.02 0-55.53Zm-86.78 69.73c27.73 0 55.47-.01 83.2 0 .01 27.75.01 55.49 0 83.23-8.18.01-16.37.01-24.55 0-.02-19.56.02-39.12-.02-58.68-19.5.07-39.01-.1-58.51.09-.29-8.21-.05-16.43-.12-24.64Zm172.78 0c27.73-.01 55.47 0 83.21 0-.06 8.21.12 16.42-.1 24.62-19.51-.15-39.02-.01-58.54-.07-.04 19.56 0 39.12-.02 58.68-8.19.01-16.37.01-24.55 0-.01-27.74-.01-55.48 0-83.23Z" />
</svg>
